<?xml version="1.0" encoding="utf-8"?>
<!-- Generator: Adobe Illustrator 24.1.0, SVG Export Plug-In . SVG Version: 6.00 Build 0)  -->
<svg version="1.1" id="Ebene_1" xmlns="http://www.w3.org/2000/svg" xmlns:xlink="http://www.w3.org/1999/xlink" x="0px" y="0px"
	 viewBox="0 0 221 61.7" style="enable-background:new 0 0 221 61.7;" xml:space="preserve">
<style type="text/css">
	.st0{fill:#FFD474;}
</style>
<g transform="translate(-121.04 -42.645)">
	<path class="st0" d="M211.5,67.4v12.9c0,1.8-1.5,3.3-3.3,3.3h-9.8v-4c-5.1,3.7-10.8,4.5-16.4,4.5c-7.5,0-14-2.7-14-9.8
		c0-8.5,9.8-10.8,19.4-10.8c3.8-0.1,7.5,0.5,11.1,1.7c0-3.9-4.2-4.1-8.5-4.1c-4.2,0-8.3,0.4-12.4,1.2c-1.5,0.3-3-0.5-3.7-1.9
		l-1.6-3.4c-0.8-1.7,0-3.6,1.7-4.4c0.2-0.1,0.4-0.1,0.6-0.2c5.2-1.4,10.5-2.1,15.9-2.2C203.8,50.3,211.4,54.9,211.5,67.4z
		 M198.4,71.5c-2.8-0.6-5.8-0.9-8.7-0.8c-6.1,0-8.7,0.5-8.7,2.6c0,1.8,1.5,2.1,4.9,2.1c4.3,0,8.5-0.9,12.5-2.5L198.4,71.5z"/>
	<path class="st0" d="M225.2,72.3c0.9,0,1.9,0.4,2.5,1.1c0.8,1,3.3,1.4,9.3,1.4c7.3,0,8.6-0.3,8.6-1.7c0-1.6-1.3-1.5-9.1-1.8
		c-15.1-0.6-21.7-1.7-21.7-10.1c0-9.3,10.1-10.9,22.2-10.9c9.8,0,17.2,1,19.7,6.4c0.7,1.7-0.1,3.6-1.8,4.3c-0.4,0.2-0.9,0.3-1.3,0.3
		h-9.1c0-1.7-2.2-1.7-8-1.7c-6.7,0-8.6,0-8.6,1.3c0,1.4,1.4,1.3,9.7,1.7c12.9,0.7,21.1,1.4,21.1,10c0,10-8.7,11.6-21.1,11.6
		c-10.3,0-19.5-1.1-22.4-7.3c-0.7-1.7,0.1-3.6,1.8-4.3c0.4-0.2,0.9-0.3,1.3-0.3L225.2,72.3z"/>
	<path class="st0" d="M284.5,61.8c-1.8,0-3.3,1.5-3.3,3.3v3.5c0,3.1,1.2,4.7,5,4.7c1.8,0,3.1,0,4.8-0.1c1.8-0.2,3.4,1.2,3.6,3
		c0,0.1,0,0.2,0,0.3v4.1c0,1.7-1.3,3.1-3,3.3c-2.8,0.3-5.5,0.4-8.3,0.4c-10.2,0-15.2-3.1-15.2-10.2v-8.9c0-1.8-1.5-3.3-3.3-3.3
		c0,0,0,0,0,0l0,0c-1.8,0-3.3-1.5-3.3-3.3c0,0,0,0,0,0v-4.3c0-1.8,1.5-3.3,3.3-3.3h3.3v-5.5l10.7-2.7c1-0.3,2.1,0.4,2.4,1.4
		c0,0.2,0.1,0.3,0.1,0.5v2.9c0,1.8,1.5,3.3,3.3,3.3c0,0,0,0,0,0h6.8c1.8,0,3.3,1.5,3.3,3.3v4.3c0,1.8-1.5,3.3-3.3,3.3c0,0,0,0,0,0
		L284.5,61.8z"/>
	<path class="st0" d="M297.5,67.5c0-12.1,8.4-16.9,22.3-16.9c13.9,0,22.3,4.8,22.3,16.9s-8.4,16.9-22.3,16.9
		C305.8,84.4,297.5,79.6,297.5,67.5z M328.9,67.5c0-4.8-3.3-6-9.2-6c-5.8,0-9.2,1.2-9.2,6s3.3,6,9.2,6
		C325.6,73.5,328.9,72.3,328.9,67.5z"/>
	<path class="st0" d="M165.7,67.3c0,9.9-6,17-14.6,17h-12.5c-1.8,0-3.3-1.5-3.3-3.3c0,0,0,0,0,0v-7.3c0-1.8-1.5-3.3-3.3-3.3h-7.6
		c-1.8,0-3.3-1.5-3.3-3.3c0,0,0,0,0,0V53.6c0-1.8,1.5-3.3,3.3-3.3c0,0,0,0,0,0h26.7C159.8,50.3,165.7,57.4,165.7,67.3z M151.5,67.3
		c0-3-1.7-3-3.2-3h-13.1v6.1h13.1C149.8,70.3,151.5,70.3,151.5,67.3L151.5,67.3z"/>
	<path class="st0" d="M121.8,84.3h12.9c0.4,0,0.7,0.3,0.7,0.7v18.7c0,0.4-0.3,0.7-0.7,0.7h-12.9c-0.4,0-0.7-0.3-0.7-0.7V84.9
		C121.1,84.6,121.4,84.3,121.8,84.3z"/>
</g>
</svg>
