<svg xmlns="http://www.w3.org/2000/svg" width="221" height="61.659" viewBox="0 0 221 61.659"><g transform="translate(-121.04 -42.645)"><path d="M174.919,61.419V74.333a3.306,3.306,0,0,1-3.306,3.306h-9.8V73.65c-5.077,3.716-10.76,4.535-16.443,4.535-7.482,0-14.034-2.678-14.034-9.777,0-8.52,9.831-10.76,19.389-10.76a31.771,31.771,0,0,1,11.088,1.694c0-3.934-4.153-4.1-8.52-4.1a66.9,66.9,0,0,0-12.45,1.175,3.338,3.338,0,0,1-3.661-1.853l-1.575-3.433a3.331,3.331,0,0,1,2.218-4.6,64.306,64.306,0,0,1,15.9-2.209C167.164,44.325,174.809,48.91,174.919,61.419Zm-13.105,4.148a35.513,35.513,0,0,0-8.684-.82c-6.061,0-8.684.546-8.684,2.623,0,1.8,1.525,2.076,4.859,2.076a33.759,33.759,0,0,0,12.509-2.514Z" transform="translate(36.588 5.97)" fill="#fff"/><path d="M152.065,66.333a3.121,3.121,0,0,1,2.459,1.129c.82,1.025,3.265,1.439,9.317,1.439,7.322,0,8.574-.328,8.574-1.749,0-1.639-1.252-1.475-9.121-1.8-15.068-.6-21.675-1.749-21.675-10.1,0-9.339,10.1-10.92,22.222-10.92,9.809,0,17.222,1.034,19.7,6.425a3.317,3.317,0,0,1-3.074,4.6h-9.139c0-1.749-2.19-1.749-8.033-1.749-6.662,0-8.574,0-8.574,1.257,0,1.366,1.366,1.311,9.672,1.749,12.887.656,21.138,1.421,21.138,10,0,10-8.738,11.58-21.138,11.58-10.259,0-19.508-1.088-22.395-7.277a3.3,3.3,0,0,1,3.078-4.576Z" transform="translate(73.13 5.97)" fill="#fff"/><path d="M174.909,61.761a3.306,3.306,0,0,0-3.306,3.306v3.47c0,3.11,1.207,4.695,5.027,4.695,1.817,0,3.137,0,4.763-.128a3.317,3.317,0,0,1,3.593,3.288v4.062a3.32,3.32,0,0,1-2.978,3.3,78.47,78.47,0,0,1-8.329.405c-10.154,0-15.182-3.115-15.182-10.214V65.066a3.3,3.3,0,0,0-3.3-3.306h0a3.3,3.3,0,0,1-3.306-3.3V54.142a3.306,3.306,0,0,1,3.306-3.306h3.3v-5.46L169.189,42.7a1.943,1.943,0,0,1,2.413,1.885v2.946a3.3,3.3,0,0,0,3.306,3.3h6.771a3.306,3.306,0,0,1,3.306,3.306v4.317a3.3,3.3,0,0,1-3.306,3.3Z" transform="translate(109.629 0)" fill="#fff"/><path d="M159.786,61.31c0-12.126,8.356-16.93,22.285-16.93s22.281,4.8,22.281,16.93S196,78.241,182.071,78.241,159.786,73.432,159.786,61.31Zm31.461,0c0-4.8-3.333-6.006-9.176-6.006s-9.18,1.2-9.18,6.006,3.333,6.006,9.18,6.006S191.247,66.119,191.247,61.31Z" transform="translate(137.688 6.165)" fill="#fff"/><path d="M165.715,61.305c0,9.886-5.956,16.985-14.635,16.985H138.544a3.3,3.3,0,0,1-3.3-3.306V67.653a3.306,3.306,0,0,0-3.306-3.306h-7.591a3.3,3.3,0,0,1-3.306-3.3V47.626a3.3,3.3,0,0,1,3.306-3.3H151.08C159.759,44.325,165.715,51.42,165.715,61.305Zm-14.2,0c0-3.042-1.744-3.042-3.165-3.042H135.243v6.084h13.105C149.769,64.347,151.513,64.347,151.513,61.305Z" transform="translate(0 5.97)" fill="#fff"/><rect width="14.201" height="20.046" rx="0.658" transform="translate(121.097 84.258)" fill="#fff"/></g></svg>